<?xml version="1.0" encoding="UTF-8"?>
<svg id="Calque_2" data-name="Calque 2" xmlns="http://www.w3.org/2000/svg" width="1680.17" height="332.56" viewBox="0 0 1680.17 332.56">
  <g id="logo">
    <g>
      <g>
        <path d="M562.54,273.89l-74.01-214.25h32.46l61.35,187.63h3.25l62-187.63h32.14l-74.66,214.25h-42.52Z"/>
        <path d="M739.45,278.11c-9.09,0-17.32-1.78-24.67-5.35-7.36-3.57-13.2-8.87-17.53-15.91-4.33-7.03-6.49-15.96-6.49-26.78,0-8,1.46-15.04,4.38-21.1,2.92-6.05,7.46-11.25,13.63-15.58,6.17-4.32,14.12-7.89,23.86-10.71,9.74-2.81,21.64-5.19,35.71-7.14,8-1.08,14.55-2.16,19.64-3.24,5.08-1.08,8.81-2.87,11.2-5.36,2.38-2.48,3.57-6.22,3.57-11.2,0-8.22-2.82-15.15-8.44-20.78-5.63-5.62-14.5-8.44-26.62-8.44-6.28,0-12.66,1.09-19.15,3.25-6.49,2.16-12.17,5.79-17.04,10.87-4.87,5.09-7.95,12.17-9.25,21.27l-27.27-9.09c1.73-7.79,4.59-14.82,8.6-21.1,4-6.27,9.14-11.63,15.42-16.07,6.27-4.43,13.58-7.84,21.91-10.22,8.33-2.38,17.58-3.57,27.75-3.57,14.06,0,25.81,2.38,35.22,7.14,9.42,4.76,16.44,12.07,21.1,21.91,4.65,9.85,6.98,22.45,6.98,37.82v37.33c0,6.71.16,14.01.49,21.91.33,7.9.81,15.8,1.46,23.7.65,7.9,1.3,15.31,1.95,22.24h-27.27c-.65-6.93-1.25-13.85-1.79-20.78-.54-6.92-.92-13.85-1.14-20.77h-4.22c-3.24,8.01-7.58,15.47-12.98,22.4-5.41,6.93-12.17,12.55-20.29,16.88-8.11,4.32-17.69,6.49-28.73,6.49ZM748.22,254.09c4.76,0,9.58-.75,14.44-2.27,4.87-1.51,9.74-4,14.61-7.46,4.87-3.46,9.52-7.9,13.96-13.31,4.43-5.41,8.38-11.9,11.85-19.48v-32.46l8.44,1.62c-3.47,3.47-8.07,6.06-13.8,7.79-5.74,1.73-12.07,3.14-18.99,4.22-6.93,1.08-13.85,2.22-20.77,3.41-6.93,1.19-13.26,2.92-18.99,5.2-5.74,2.27-10.34,5.46-13.8,9.58-3.46,4.11-5.19,9.73-5.19,16.88,0,8.66,2.6,15.21,7.79,19.64,5.19,4.44,12.01,6.65,20.45,6.65Z"/>
        <path d="M881.63,273.89V106.06h26.62l-2.6,58.43h5.52c1.95-12.76,4.98-23.8,9.09-33.11,4.11-9.3,9.58-16.55,16.39-21.75,6.82-5.19,15.31-7.79,25.48-7.79,2.16,0,4.65.16,7.47.49,2.81.32,6.06,1.14,9.74,2.43l-1.62,30.84c-3.25-1.3-6.49-2.22-9.74-2.76-3.24-.54-6.38-.81-9.41-.81-8.44,0-15.74,2.71-21.91,8.11-6.17,5.41-11.31,12.72-15.42,21.91-4.11,9.2-7.47,19.54-10.06,31v80.83h-29.54Z"/>
        <path d="M1096.52,278.11c-17.53,0-33.17-4.05-46.91-12.17-13.75-8.11-24.51-20.29-32.3-36.52-7.79-16.23-11.69-36.79-11.69-61.67,0-17.53,2.16-33.16,6.49-46.91,4.33-13.74,10.66-25.48,18.99-35.22,8.33-9.74,18.55-17.21,30.67-22.4,12.12-5.19,26.18-7.79,42.2-7.79,11.9,0,22.67,1.51,32.3,4.54,9.63,3.03,18.02,7.36,25.16,12.98,7.14,5.63,12.93,12.55,17.37,20.78,4.43,8.22,7.19,17.53,8.28,27.91l-28.57,8.12c-.87-11.69-4.01-21.05-9.41-28.08-5.41-7.03-12.12-12.17-20.13-15.42-8.01-3.24-16.56-4.87-25.64-4.87-13.2,0-24.78,2.92-34.73,8.77-9.96,5.84-17.75,15.09-23.37,27.75-5.63,12.66-8.44,29.05-8.44,49.18,0,15.8,1.73,29.11,5.19,39.93,3.46,10.82,8.12,19.53,13.96,26.13,5.84,6.6,12.71,11.36,20.61,14.28,7.9,2.92,16.28,4.38,25.16,4.38,11.47,0,21.31-2.16,29.54-6.49,8.22-4.33,14.87-10.87,19.96-19.64,5.08-8.77,8.28-19.85,9.58-33.27h-49.02v-23.7h78.56v105.17h-24.35l6.17-58.43h-4.87c-2.81,14.07-7.2,25.7-13.15,34.89-5.95,9.2-13.63,16.13-23.05,20.78-9.41,4.65-20.94,6.98-34.57,6.98Z"/>
        <path d="M1276.35,278.11c-9.09,0-17.32-1.78-24.67-5.35-7.36-3.57-13.2-8.87-17.53-15.91-4.33-7.03-6.49-15.96-6.49-26.78,0-8,1.46-15.04,4.38-21.1,2.92-6.05,7.46-11.25,13.63-15.58,6.17-4.32,14.12-7.89,23.86-10.71,9.74-2.81,21.64-5.19,35.71-7.14,8-1.08,14.55-2.16,19.64-3.24,5.08-1.08,8.81-2.87,11.2-5.36,2.38-2.48,3.57-6.22,3.57-11.2,0-8.22-2.82-15.15-8.44-20.78-5.63-5.62-14.5-8.44-26.62-8.44-6.28,0-12.66,1.09-19.15,3.25-6.49,2.16-12.17,5.79-17.04,10.87-4.87,5.09-7.95,12.17-9.25,21.27l-27.27-9.09c1.73-7.79,4.59-14.82,8.6-21.1,4-6.27,9.14-11.63,15.42-16.07,6.27-4.43,13.58-7.84,21.91-10.22,8.33-2.38,17.58-3.57,27.75-3.57,14.06,0,25.81,2.38,35.22,7.14,9.42,4.76,16.44,12.07,21.1,21.91,4.65,9.85,6.98,22.45,6.98,37.82v37.33c0,6.71.16,14.01.49,21.91.33,7.9.81,15.8,1.46,23.7.65,7.9,1.3,15.31,1.95,22.24h-27.27c-.65-6.93-1.25-13.85-1.79-20.78-.54-6.92-.92-13.85-1.14-20.77h-4.22c-3.24,8.01-7.58,15.47-12.98,22.4-5.41,6.93-12.17,12.55-20.29,16.88-8.11,4.32-17.69,6.49-28.73,6.49ZM1285.12,254.09c4.76,0,9.58-.75,14.44-2.27,4.87-1.51,9.74-4,14.61-7.46,4.87-3.46,9.52-7.9,13.96-13.31,4.43-5.41,8.38-11.9,11.85-19.48v-32.46l8.44,1.62c-3.47,3.47-8.07,6.06-13.8,7.79-5.74,1.73-12.07,3.14-18.99,4.22-6.93,1.08-13.85,2.22-20.77,3.41-6.93,1.19-13.26,2.92-18.99,5.2-5.74,2.27-10.34,5.46-13.8,9.58-3.46,4.11-5.19,9.73-5.19,16.88,0,8.66,2.6,15.21,7.79,19.64,5.19,4.44,12.01,6.65,20.45,6.65Z"/>
        <path d="M1470.79,277.14c-15.58,0-27.16-4.22-34.73-12.66-7.58-8.44-11.36-21.31-11.36-38.63v-95.11h-25.32l.33-24.67h15.91c5.41,0,9.36-.97,11.85-2.92,2.49-1.95,3.95-5.2,4.38-9.74l3.24-25.32h18.18v37.98h48.37v24.99h-48.37v94.14c0,8.66,2,14.88,6.01,18.66,4,3.79,9.79,5.68,17.37,5.68,4.11,0,8.38-.54,12.82-1.62,4.43-1.08,8.82-3.25,13.15-6.49v29.54c-6.28,2.39-12.07,4-17.37,4.87-5.31.86-10.12,1.3-14.45,1.3Z"/>
        <path d="M1608.75,278.11c-13.2,0-24.83-2-34.89-6.01-10.06-4-18.56-9.79-25.48-17.36-6.93-7.57-12.12-16.55-15.58-26.95-3.47-10.39-5.2-22.07-5.2-35.06s1.73-25.32,5.2-36.36c3.46-11.04,8.55-20.66,15.26-28.89,6.71-8.22,14.93-14.55,24.67-18.99,9.74-4.43,20.88-6.65,33.43-6.65,11.04,0,21.1,1.84,30.19,5.52,9.09,3.69,16.82,9.36,23.21,17.04,6.38,7.68,11.2,17.32,14.45,28.89,3.24,11.58,4.54,25.16,3.89,40.74l-131.79.97v-20.13l113.94-.97-10.06,13.63c1.08-13.63-.22-24.88-3.89-33.76-3.68-8.87-8.93-15.58-15.74-20.13-6.82-4.54-14.88-6.82-24.18-6.82-9.96,0-18.72,2.6-26.29,7.79-7.58,5.2-13.36,12.66-17.37,22.4-4.01,9.74-6.01,21.53-6.01,35.38,0,19.91,4.43,35.11,13.31,45.61,8.87,10.5,21.96,15.74,39.28,15.74,6.92,0,12.93-.81,18.02-2.43,5.08-1.62,9.41-3.9,12.98-6.82,3.57-2.92,6.49-6.33,8.76-10.22,2.27-3.9,4.06-8.11,5.36-12.66l25.97,6.16c-1.95,7.79-4.93,14.77-8.93,20.94-4.01,6.17-8.98,11.42-14.93,15.74-5.95,4.33-12.82,7.68-20.61,10.06-7.79,2.38-16.77,3.57-26.94,3.57Z"/>
      </g>
      <g>
        <circle cx="182.96" cy="299.2" r="33.36"/>
        <circle cx="332.56" cy="149.6" r="33.36"/>
        <circle cx="33.36" cy="149.6" r="33.36"/>
        <circle cx="241.08" cy="207.72" r="33.36"/>
        <circle cx="299.2" cy="265.84" r="33.36"/>
        <circle cx="299.2" cy="33.36" r="33.36"/>
        <circle cx="241.08" cy="91.48" r="33.36"/>
        <g>
          <circle cx="66.72" cy="33.36" r="33.36"/>
          <circle cx="124.84" cy="91.48" r="33.36"/>
          <circle cx="182.96" cy="149.6" r="33.36"/>
          <circle cx="124.84" cy="207.72" r="33.36"/>
          <circle cx="66.72" cy="265.84" r="33.36"/>
        </g>
      </g>
    </g>
  </g>
</svg>